<?xml version="1.0" encoding="UTF-8" standalone="no"?>
<!DOCTYPE svg PUBLIC "-//W3C//DTD SVG 1.1//EN" "http://www.w3.org/Graphics/SVG/1.1/DTD/svg11.dtd">
<svg width="100%" height="100%" viewBox="0 0 469 256" version="1.1" xmlns="http://www.w3.org/2000/svg" xmlns:xlink="http://www.w3.org/1999/xlink" xml:space="preserve" xmlns:serif="http://www.serif.com/" style="fill-rule:evenodd;clip-rule:evenodd;stroke-linejoin:round;stroke-miterlimit:2;">
    <g transform="matrix(0.24,0,0,0.24,0,0)">
        <g transform="matrix(1,0,0,1,-766.56,-707.53)">
            <rect id="Artboard1" x="766.56" y="707.53" width="1953.09" height="1065.47" style="fill:none;"/>
            <g id="Artboard11" serif:id="Artboard1">
                <g transform="matrix(1.5625,0,0,1.5625,-29.9251,517.85)">
                    <g transform="matrix(2.66667,0,0,2.66667,1115.87,341.608)">
                        <path d="M0,0.246L1.998,0.246L1.998,10.921C-0.569,13.365 -4.278,14.587 -8.19,14.587C-16.785,14.587 -23.101,8.435 -23.101,0.124C-23.101,-8.188 -16.785,-14.341 -8.149,-14.341C-4.033,-14.341 -0.408,-13.036 2.118,-10.429L0.815,-9.045C-1.67,-11.489 -4.644,-12.425 -8.108,-12.425C-15.523,-12.425 -21.024,-7.048 -21.024,0.124C-21.024,7.253 -15.523,12.672 -8.108,12.672C-5.093,12.672 -2.322,11.938 0,10.065L0,0.246Z" style="fill:rgb(62,82,105);fill-rule:nonzero;"/>
                    </g>
                    <g transform="matrix(2.66667,0,0,2.66667,0,-10520.7)">
                        <rect x="428.927" y="4057.51" width="2.038" height="30.231" style="fill:rgb(62,82,105);"/>
                    </g>
                    <g transform="matrix(2.66667,0,0,2.66667,1165.98,351.606)">
                        <path d="M0,0C0,-6.314 4.522,-10.797 10.634,-10.797C16.745,-10.797 21.267,-6.314 21.267,0C21.267,6.316 16.745,10.797 10.634,10.797C4.522,10.797 0,6.316 0,0M19.19,0C19.19,-5.337 15.522,-8.963 10.634,-8.963C5.745,-8.963 2.078,-5.338 2.078,0C2.078,5.337 5.745,8.964 10.634,8.964C15.522,8.964 19.19,5.337 19.19,0" style="fill:rgb(62,82,105);fill-rule:nonzero;"/>
                    </g>
                    <g transform="matrix(2.66667,0,0,2.66667,1296.04,328.139)">
                        <path d="M0,8.8C0,15.156 -4.522,19.597 -10.512,19.597C-14.341,19.597 -17.56,17.683 -19.23,14.423L-19.23,19.434L-21.187,19.434L-21.187,-10.797L-19.148,-10.797L-19.148,3.016C-17.438,-0.163 -14.259,-1.997 -10.512,-1.997C-4.522,-1.997 0,2.404 0,8.8M-2.037,8.8C-2.037,3.463 -5.745,-0.163 -10.634,-0.163C-15.523,-0.163 -19.189,3.462 -19.189,8.8C-19.189,14.137 -15.523,17.764 -10.634,17.764C-5.745,17.764 -2.037,14.137 -2.037,8.8" style="fill:rgb(62,82,105);fill-rule:nonzero;"/>
                    </g>
                    <g transform="matrix(2.66667,0,0,2.66667,1353.64,359.21)">
                        <path d="M0,-5.704L0,7.782L-1.955,7.782L-1.955,3.994C-3.299,6.439 -5.907,7.945 -9.615,7.945C-14.382,7.945 -17.275,5.501 -17.275,1.876C-17.275,-1.343 -15.238,-4.073 -9.33,-4.073L-2.037,-4.073L-2.037,-5.786C-2.037,-9.737 -4.196,-11.855 -8.351,-11.855C-11.285,-11.855 -13.933,-10.756 -15.686,-9.166L-16.704,-10.634C-14.585,-12.507 -11.489,-13.649 -8.188,-13.649C-2.932,-13.649 0,-10.96 0,-5.704ZM-2.037,1.509L-2.037,-2.485L-9.289,-2.485C-13.689,-2.485 -15.238,-0.652 -15.238,1.794C-15.238,4.563 -13.079,6.275 -9.33,6.275C-5.744,6.275 -3.258,4.563 -2.037,1.509" style="fill:rgb(62,82,105);fill-rule:nonzero;"/>
                    </g>
                    <g transform="matrix(2.66667,0,0,2.66667,0,-10520.7)">
                        <rect x="516.013" y="4057.51" width="2.038" height="30.231" style="fill:rgb(62,82,105);"/>
                    </g>
                    <g transform="matrix(2.66667,0,0,2.66667,1051.98,436.762)">
                        <path d="M0,0.002C0,-8.555 6.724,-14.83 15.849,-14.83C24.977,-14.83 31.699,-8.555 31.699,0.002C31.699,8.557 24.977,14.832 15.849,14.832C6.724,14.832 0,8.557 0,0.002M23.55,0.002C23.55,-4.928 20.169,-8.147 15.849,-8.147C11.531,-8.147 8.149,-4.928 8.149,0.002C8.149,4.932 11.531,8.151 15.849,8.151C20.169,8.151 23.55,4.932 23.55,0.002" style="fill:rgb(62,82,105);fill-rule:nonzero;"/>
                    </g>
                    <g transform="matrix(2.66667,0,0,2.66667,1209.54,448.607)">
                        <path d="M0,-2.811L0,9.819L-7.74,9.819L-7.74,-1.547C-7.74,-4.726 -9.125,-6.071 -11.367,-6.071C-13.852,-6.071 -15.767,-4.522 -15.767,-0.856L-15.767,9.819L-23.508,9.819L-23.508,-12.263L-16.134,-12.263L-16.134,-9.859C-14.381,-11.692 -11.896,-12.63 -9.125,-12.63C-3.951,-12.63 0,-9.655 0,-2.811" style="fill:rgb(62,82,105);fill-rule:nonzero;"/>
                    </g>
                    <g transform="matrix(2.66667,0,0,2.66667,1283.22,440.133)">
                        <path d="M0,3.912L-16.052,3.912C-15.401,6.153 -13.485,7.456 -10.633,7.456C-8.473,7.456 -7.048,6.846 -5.54,5.541L-1.466,9.778C-3.584,12.142 -6.681,13.364 -10.877,13.364C-18.741,13.364 -23.834,8.516 -23.834,1.916C-23.834,-4.726 -18.659,-9.452 -11.693,-9.452C-5.174,-9.452 0.122,-5.297 0.122,1.996C0.122,2.567 0.041,3.3 0,3.912M-16.174,-0.163L-7.13,-0.163C-7.537,-2.485 -9.248,-3.952 -11.652,-3.952C-14.056,-3.952 -15.727,-2.485 -16.174,-0.163" style="fill:rgb(62,82,105);fill-rule:nonzero;"/>
                    </g>
                    <g transform="matrix(2.66667,0,0,2.66667,1128.25,569.62)">
                        <path d="M0,-28.52L0,0L-8.067,0L-8.067,-11.122L-19.068,-11.122L-19.068,0L-27.136,0L-27.136,-28.52L-19.068,-28.52L-19.068,-17.804L-8.067,-17.804L-8.067,-28.52L0,-28.52Z" style="fill:rgb(62,82,105);fill-rule:nonzero;"/>
                    </g>
                    <g transform="matrix(2.66667,0,0,2.66667,1202.37,534.962)">
                        <path d="M0,3.912L-16.051,3.912C-15.4,6.152 -13.484,7.455 -10.632,7.455C-8.473,7.455 -7.047,6.846 -5.539,5.541L-1.466,9.778C-3.584,12.142 -6.68,13.364 -10.876,13.364C-18.74,13.364 -23.833,8.516 -23.833,1.916C-23.833,-4.726 -18.658,-9.452 -11.692,-9.452C-5.174,-9.452 0.122,-5.297 0.122,1.996C0.122,2.567 0.041,3.3 0,3.912ZM-16.173,-0.163L-7.129,-0.163C-7.537,-2.485 -9.247,-3.952 -11.651,-3.952C-14.055,-3.952 -15.726,-2.485 -16.173,-0.163" style="fill:rgb(62,82,105);fill-rule:nonzero;"/>
                    </g>
                    <g transform="matrix(2.66667,0,0,2.66667,1265.83,543.436)">
                        <path d="M0,-2.444L0,9.819L-7.211,9.819L-7.211,6.967C-8.312,9.087 -10.512,10.186 -13.731,10.186C-19.028,10.186 -21.96,7.212 -21.96,3.383C-21.96,-0.693 -18.987,-3.219 -12.141,-3.219L-7.741,-3.219C-7.864,-5.459 -9.37,-6.722 -12.426,-6.722C-14.545,-6.722 -16.908,-5.989 -18.416,-4.807L-21.024,-10.063C-18.498,-11.733 -14.749,-12.63 -11.286,-12.63C-4.114,-12.63 0,-9.451 0,-2.444M-7.741,2.73L-7.741,0.816L-11.083,0.816C-13.568,0.816 -14.463,1.711 -14.463,3.056C-14.463,4.359 -13.405,5.297 -11.57,5.297C-9.86,5.297 -8.353,4.482 -7.741,2.73" style="fill:rgb(62,82,105);fill-rule:nonzero;"/>
                    </g>
                    <g transform="matrix(2.66667,0,0,2.66667,0,-10141.4)">
                        <rect x="479.582" y="3986.39" width="7.741" height="30.231" style="fill:rgb(62,82,105);"/>
                    </g>
                    <g transform="matrix(2.66667,0,0,2.66667,1359.4,500.956)">
                        <path d="M0,24.854C-1.344,25.709 -3.341,26.116 -5.378,26.116C-11.042,26.116 -14.341,23.346 -14.341,17.682L-14.341,10.267L-17.56,10.267L-17.56,4.481L-14.341,4.481L-14.341,-1.262L-6.6,-1.262L-6.6,4.481L-1.548,4.481L-1.548,10.267L-6.6,10.267L-6.6,17.601C-6.6,19.231 -5.664,20.126 -4.278,20.126C-3.421,20.126 -2.567,19.884 -1.915,19.435L0,24.854Z" style="fill:rgb(62,82,105);fill-rule:nonzero;"/>
                    </g>
                    <g transform="matrix(2.66667,0,0,2.66667,1430.03,522.684)">
                        <path d="M0,4.971L0,17.601L-7.741,17.601L-7.741,6.235C-7.741,3.056 -9.126,1.711 -11.368,1.711C-13.853,1.711 -15.768,3.26 -15.768,6.926L-15.768,17.601L-23.509,17.601L-23.509,-12.63L-15.768,-12.63L-15.768,-2.444C-14.057,-4.032 -11.733,-4.848 -9.126,-4.848C-3.951,-4.848 0,-1.873 0,4.971" style="fill:rgb(62,82,105);fill-rule:nonzero;"/>
                    </g>
                    <g transform="matrix(2.66667,0,0,2.66667,1051.98,626.419)">
                        <path d="M0,0.002C0,-8.677 6.642,-14.83 15.686,-14.83C20.942,-14.83 25.18,-12.914 27.951,-9.451L22.817,-4.805C21.024,-6.966 18.824,-8.147 16.094,-8.147C11.409,-8.147 8.149,-4.887 8.149,0.002C8.149,4.891 11.409,8.151 16.094,8.151C18.824,8.151 21.024,6.969 22.817,4.81L27.951,9.454C25.18,12.918 20.942,14.832 15.686,14.832C6.642,14.832 0,8.679 0,0.002" style="fill:rgb(62,82,105);fill-rule:nonzero;"/>
                    </g>
                    <g transform="matrix(2.66667,0,0,2.66667,1129.57,635.114)">
                        <path d="M0,-0.08C0,-6.722 5.256,-11.448 12.467,-11.448C19.76,-11.448 24.934,-6.722 24.934,-0.08C24.934,6.601 19.76,11.368 12.467,11.368C5.256,11.368 0,6.601 0,-0.08M17.112,-0.08C17.112,-3.422 15.115,-5.295 12.467,-5.295C9.86,-5.295 7.823,-3.422 7.823,-0.08C7.823,3.301 9.86,5.215 12.467,5.215C15.116,5.215 17.112,3.301 17.112,-0.08" style="fill:rgb(62,82,105);fill-rule:nonzero;"/>
                    </g>
                    <g transform="matrix(2.66667,0,0,2.66667,1306.14,638.266)">
                        <path d="M0,-2.811L0,9.819L-7.741,9.819L-7.741,-1.547C-7.741,-4.726 -9.046,-6.071 -11.083,-6.071C-13.323,-6.071 -14.954,-4.562 -14.954,-1.141L-14.954,9.819L-22.695,9.819L-22.695,-1.547C-22.695,-4.726 -23.957,-6.071 -26.035,-6.071C-28.318,-6.071 -29.947,-4.562 -29.947,-1.141L-29.947,9.819L-37.688,9.819L-37.688,-12.263L-30.314,-12.263L-30.314,-9.941C-28.643,-11.733 -26.32,-12.63 -23.713,-12.63C-20.697,-12.63 -18.131,-11.531 -16.583,-9.166C-14.832,-11.368 -12.102,-12.63 -8.923,-12.63C-3.79,-12.63 0,-9.655 0,-2.811Z" style="fill:rgb(62,82,105);fill-rule:nonzero;"/>
                    </g>
                    <g transform="matrix(2.66667,0,0,2.66667,1419.7,638.266)">
                        <path d="M0,-2.811L0,9.819L-7.741,9.819L-7.741,-1.547C-7.741,-4.726 -9.046,-6.071 -11.083,-6.071C-13.323,-6.071 -14.954,-4.562 -14.954,-1.141L-14.954,9.819L-22.695,9.819L-22.695,-1.547C-22.695,-4.726 -23.957,-6.071 -26.035,-6.071C-28.318,-6.071 -29.947,-4.562 -29.947,-1.141L-29.947,9.819L-37.688,9.819L-37.688,-12.263L-30.314,-12.263L-30.314,-9.941C-28.643,-11.733 -26.32,-12.63 -23.713,-12.63C-20.697,-12.63 -18.131,-11.531 -16.583,-9.166C-14.832,-11.368 -12.102,-12.63 -8.923,-12.63C-3.79,-12.63 0,-9.655 0,-2.811Z" style="fill:rgb(62,82,105);fill-rule:nonzero;"/>
                    </g>
                    <g transform="matrix(2.66667,0,0,2.66667,1494.7,665.429)">
                        <path d="M0,-22.449L0,-0.367L-7.374,-0.367L-7.374,-2.73C-9.044,-0.897 -11.407,0 -13.935,0C-19.352,0 -23.305,-3.097 -23.305,-10.104L-23.305,-22.449L-15.564,-22.449L-15.564,-11.368C-15.564,-7.945 -14.219,-6.6 -11.896,-6.6C-9.615,-6.6 -7.741,-8.108 -7.741,-11.815L-7.741,-22.449L0,-22.449Z" style="fill:rgb(62,82,105);fill-rule:nonzero;"/>
                    </g>
                    <g transform="matrix(2.66667,0,0,2.66667,1570.66,638.266)">
                        <path d="M0,-2.811L0,9.819L-7.741,9.819L-7.741,-1.547C-7.741,-4.726 -9.126,-6.071 -11.368,-6.071C-13.853,-6.071 -15.768,-4.522 -15.768,-0.856L-15.768,9.819L-23.509,9.819L-23.509,-12.263L-16.135,-12.263L-16.135,-9.859C-14.382,-11.692 -11.896,-12.63 -9.126,-12.63C-3.951,-12.63 0,-9.655 0,-2.811" style="fill:rgb(62,82,105);fill-rule:nonzero;"/>
                    </g>
                    <g transform="matrix(2.66667,0,0,2.66667,1581.32,653.478)">
                        <path d="M0,-24.528C0,-26.85 1.875,-28.643 4.727,-28.643C7.578,-28.643 9.453,-26.973 9.453,-24.65C9.453,-22.206 7.578,-20.412 4.727,-20.412C1.875,-20.412 0,-22.206 0,-24.528M0.856,-17.967L8.597,-17.967L8.597,4.115L0.856,4.115L0.856,-17.967Z" style="fill:rgb(62,82,105);fill-rule:nonzero;"/>
                    </g>
                    <g transform="matrix(2.66667,0,0,2.66667,1658.25,595.785)">
                        <path d="M0,24.854C-1.344,25.709 -3.341,26.116 -5.378,26.116C-11.042,26.116 -14.341,23.346 -14.341,17.682L-14.341,10.267L-17.56,10.267L-17.56,4.481L-14.341,4.481L-14.341,-1.262L-6.6,-1.262L-6.6,4.481L-1.548,4.481L-1.548,10.267L-6.6,10.267L-6.6,17.601C-6.6,19.231 -5.664,20.127 -4.277,20.127C-3.421,20.127 -2.567,19.884 -1.915,19.435L0,24.854Z" style="fill:rgb(62,82,105);fill-rule:nonzero;"/>
                    </g>
                    <g transform="matrix(2.66667,0,0,2.66667,1727.15,686.506)">
                        <path d="M0,-30.353L-9.533,-7.374C-11.856,-1.67 -15.115,0 -19.474,0C-21.798,0 -24.406,-0.774 -25.872,-1.996L-23.183,-7.415C-22.286,-6.6 -20.983,-6.112 -19.76,-6.112C-18.253,-6.112 -17.397,-6.681 -16.745,-7.986L-26.198,-30.353L-18.253,-30.353L-12.834,-16.867L-7.374,-30.353L0,-30.353Z" style="fill:rgb(62,82,105);fill-rule:nonzero;"/>
                    </g>
                    <g transform="matrix(2.66667,0,0,2.66667,778.013,284.212)">
                        <path d="M0,101.783C-10.405,101.783 -18.869,93.317 -18.869,82.912C-18.869,75.66 -24.769,69.761 -32.021,69.761C-39.273,69.761 -45.173,75.66 -45.173,82.912C-45.173,93.317 -53.637,101.783 -64.042,101.783C-74.446,101.783 -82.912,93.317 -82.912,82.912C-82.912,72.508 -74.446,64.042 -64.042,64.042C-56.791,64.042 -50.891,58.143 -50.891,50.891C-50.891,43.64 -56.791,37.741 -64.042,37.741C-74.446,37.741 -82.912,29.275 -82.912,18.87C-82.912,8.466 -74.446,0 -64.042,0C-53.637,0 -45.173,8.466 -45.173,18.87C-45.173,26.123 -39.273,32.022 -32.021,32.022C-24.769,32.022 -18.869,26.123 -18.869,18.87C-18.869,8.466 -10.405,0 0,0C10.405,0 18.87,8.466 18.87,18.87C18.87,29.275 10.405,37.741 0,37.741C-7.251,37.741 -13.151,43.64 -13.151,50.891C-13.151,58.143 -7.251,64.042 0,64.042C10.405,64.042 18.87,72.508 18.87,82.912C18.87,93.317 10.405,101.783 0,101.783M-32.021,64.042C-21.616,64.042 -13.151,72.508 -13.151,82.912C-13.151,90.164 -7.251,96.064 0,96.064C7.252,96.064 13.152,90.164 13.152,82.912C13.152,75.66 7.252,69.761 0,69.761C-10.405,69.761 -18.869,61.295 -18.869,50.891C-18.869,40.486 -10.405,32.022 0,32.022C7.252,32.022 13.152,26.123 13.152,18.87C13.152,11.618 7.252,5.719 0,5.719C-7.251,5.719 -13.151,11.618 -13.151,18.87C-13.151,29.275 -21.616,37.741 -32.021,37.741C-42.426,37.741 -50.891,29.275 -50.891,18.87C-50.891,11.618 -56.791,5.719 -64.042,5.719C-71.294,5.719 -77.194,11.618 -77.194,18.87C-77.194,26.123 -71.294,32.022 -64.042,32.022C-53.637,32.022 -45.173,40.486 -45.173,50.891C-45.173,61.295 -53.637,69.761 -64.042,69.761C-71.294,69.761 -77.194,75.66 -77.194,82.912C-77.194,90.164 -71.294,96.064 -64.042,96.064C-56.791,96.064 -50.891,90.164 -50.891,82.912C-50.891,72.508 -42.426,64.042 -32.021,64.042" style="fill:rgb(89,152,179);fill-rule:nonzero;"/>
                    </g>
                    <g transform="matrix(2.66667,0,0,2.66667,948.793,198.821)">
                        <path d="M0,101.783C-10.405,101.783 -18.87,93.317 -18.87,82.912C-18.87,75.662 -24.77,69.763 -32.021,69.763C-39.273,69.763 -45.173,75.662 -45.173,82.912C-45.173,93.317 -53.638,101.783 -64.043,101.783C-74.447,101.783 -82.912,93.317 -82.912,82.912C-82.912,72.508 -74.447,64.043 -64.043,64.043C-56.791,64.043 -50.891,58.144 -50.891,50.892C-50.891,43.64 -56.791,37.741 -64.043,37.741C-74.447,37.741 -82.912,29.275 -82.912,18.87C-82.912,8.466 -74.447,0 -64.043,0C-53.638,0 -45.173,8.466 -45.173,18.87C-45.173,26.122 -39.273,32.022 -32.021,32.022C-24.77,32.022 -18.87,26.122 -18.87,18.87C-18.87,8.466 -10.405,0 0,0C10.405,0 18.869,8.466 18.869,18.87C18.869,29.275 10.405,37.741 0,37.741C-7.252,37.741 -13.152,43.64 -13.152,50.892C-13.152,58.144 -7.252,64.043 0,64.043C10.405,64.043 18.869,72.508 18.869,82.912C18.869,93.317 10.405,101.783 0,101.783M-32.021,64.043C-21.616,64.043 -13.152,72.508 -13.152,82.912C-13.152,90.164 -7.252,96.064 0,96.064C7.251,96.064 13.151,90.164 13.151,82.912C13.151,75.662 7.251,69.763 0,69.763C-10.405,69.763 -18.87,61.297 -18.87,50.892C-18.87,40.488 -10.405,32.022 0,32.022C7.251,32.022 13.151,26.122 13.151,18.87C13.151,11.618 7.251,5.72 0,5.72C-7.252,5.72 -13.152,11.618 -13.152,18.87C-13.152,29.275 -21.616,37.741 -32.021,37.741C-42.426,37.741 -50.891,29.275 -50.891,18.87C-50.891,11.618 -56.791,5.72 -64.043,5.72C-71.294,5.72 -77.194,11.618 -77.194,18.87C-77.194,26.122 -71.294,32.022 -64.043,32.022C-53.638,32.022 -45.173,40.488 -45.173,50.892C-45.173,61.297 -53.638,69.763 -64.043,69.763C-71.294,69.763 -77.194,75.662 -77.194,82.912C-77.194,90.164 -71.294,96.064 -64.043,96.064C-56.791,96.064 -50.891,90.164 -50.891,82.912C-50.891,72.508 -42.426,64.043 -32.021,64.043" style="fill:rgb(115,153,91);fill-rule:nonzero;"/>
                    </g>
                    <g transform="matrix(2.66667,0,0,2.66667,863.404,454.99)">
                        <path d="M0,101.783C-10.405,101.783 -18.87,93.317 -18.87,82.912C-18.87,75.66 -24.77,69.761 -32.022,69.761C-39.273,69.761 -45.173,75.66 -45.173,82.912C-45.173,93.317 -53.638,101.783 -64.043,101.783C-74.447,101.783 -82.912,93.317 -82.912,82.912C-82.912,72.508 -74.447,64.042 -64.043,64.042C-56.791,64.042 -50.891,58.143 -50.891,50.892C-50.891,43.64 -56.791,37.741 -64.043,37.741C-74.447,37.741 -82.912,29.275 -82.912,18.871C-82.912,8.466 -74.447,0 -64.043,0C-53.638,0 -45.173,8.466 -45.173,18.871C-45.173,26.123 -39.273,32.022 -32.022,32.022C-24.77,32.022 -18.87,26.123 -18.87,18.871C-18.87,8.466 -10.405,0 0,0C10.405,0 18.869,8.466 18.869,18.871C18.869,29.275 10.405,37.741 0,37.741C-7.252,37.741 -13.152,43.64 -13.152,50.892C-13.152,58.143 -7.252,64.042 0,64.042C10.405,64.042 18.869,72.508 18.869,82.912C18.869,93.317 10.405,101.783 0,101.783M-32.022,64.042C-21.617,64.042 -13.152,72.508 -13.152,82.912C-13.152,90.164 -7.252,96.064 0,96.064C7.251,96.064 13.151,90.164 13.151,82.912C13.151,75.66 7.251,69.761 0,69.761C-10.405,69.761 -18.87,61.297 -18.87,50.892C-18.87,40.488 -10.405,32.022 0,32.022C7.251,32.022 13.151,26.123 13.151,18.871C13.151,11.619 7.251,5.72 0,5.72C-7.252,5.72 -13.152,11.619 -13.152,18.871C-13.152,29.275 -21.617,37.741 -32.022,37.741C-42.426,37.741 -50.891,29.275 -50.891,18.871C-50.891,11.619 -56.791,5.72 -64.043,5.72C-71.294,5.72 -77.194,11.619 -77.194,18.871C-77.194,26.123 -71.294,32.022 -64.043,32.022C-53.638,32.022 -45.173,40.488 -45.173,50.892C-45.173,61.297 -53.638,69.761 -64.043,69.761C-71.294,69.761 -77.194,75.66 -77.194,82.912C-77.194,90.164 -71.294,96.064 -64.043,96.064C-56.791,96.064 -50.891,90.164 -50.891,82.912C-50.891,72.508 -42.426,64.042 -32.022,64.042" style="fill:rgb(180,87,81);fill-rule:nonzero;"/>
                    </g>
                </g>
            </g>
        </g>
    </g>
</svg>
